<svg xmlns="http://www.w3.org/2000/svg" xmlns:xlink="http://www.w3.org/1999/xlink" id="Layer_1" x="0" y="0" enable-background="new 0 0 42 42" version="1.1" viewBox="0 0 42 42" xml:space="preserve"><g><g><path fill="#999" d="M31.8,10.6H9.3c-1.3,0-2.4-1.1-2.4-2.4c0-1.3,1.1-2.4,2.4-2.4h22.6c1.3,0,2.4,1.1,2.4,2.4 C34.2,9.5,33.1,10.6,31.8,10.6z M9.3,7C8.6,7,8,7.5,8,8.2c0,0.7,0.6,1.3,1.3,1.3h22.6c0.7,0,1.3-0.6,1.3-1.3 c0-0.7-0.6-1.3-1.3-1.3H9.3z"/></g><g><path fill="#999" d="M18.5,36.2V21.7L9.4,11.5h22.7l-9.6,10.4v10.4L18.5,36.2z M11.8,12.6l7.8,8.8v12.3l1.8-1.8V21.5l8.3-8.9 H11.8z"/></g></g></svg>