<svg xmlns="http://www.w3.org/2000/svg" xmlns:xlink="http://www.w3.org/1999/xlink" id="Layer_1" x="0" y="0" enable-background="new 0 0 792 612" version="1.1" viewBox="0 0 792 612" xml:space="preserve"><g><path fill="#bbbfc2" d="M396,14.6c-160.3,0-291.4,131.1-291.4,291.4S235.7,597.4,396,597.4S687.4,466.3,687.4,306S556.3,14.6,396,14.6z M465.9,241.9c-1.5,0-2.9,0-4.4,0c-58.3,0-58.3,49.5-58.3,69.9v183.6H302.7V157.4h94.7v36.4h1.5c10.2-16,32.1-48.1,91.8-48.1 c17.5,0,36.4,4.4,52.5,10.2C508.2,174.9,482,205.5,465.9,241.9z"/></g></svg>