<svg xmlns="http://www.w3.org/2000/svg" xmlns:xlink="http://www.w3.org/1999/xlink" id="Layer_1" x="0" y="0" enable-background="new 152 120.5 13 13" version="1.1" viewBox="152 120.5 13 13" xml:space="preserve"><g><path fill="#999" d="M158.5,120.5c-3.6,0-6.5,2.9-6.5,6.5s2.9,6.5,6.5,6.5s6.5-2.9,6.5-6.5S162.1,120.5,158.5,120.5z M158.5,132.5c-3,0-5.5-2.5-5.5-5.5s2.5-5.5,5.5-5.5s5.5,2.5,5.5,5.5S161.5,132.5,158.5,132.5z"/><polygon fill="#999" points="159 126.5 159 123 158 123 158 126.5 154.5 126.5 154.5 127.5 158 127.5 158 131 159 131 159 127.5 162.5 127.5 162.5 126.5"/></g></svg>