<svg xmlns="http://www.w3.org/2000/svg" xmlns:xlink="http://www.w3.org/1999/xlink" id="Layer_1" width="300" height="300" x="0" y="0" enable-background="new 0 0 300 300" version="1.1" viewBox="0 0 300 300" xml:space="preserve"><style type="text/css">.st0{fill:none}.st1{fill:url(#SVGID_1_)}.st2{fill:#3bb0c9}</style><path d="M86.9,37.8c9.3,0,16.8-7.6,16.8-16.8c0-9.3-7.6-16.8-16.8-16.8S70.1,11.7,70.1,21	C70.1,30.2,77.6,37.8,86.9,37.8z" class="st0"/><linearGradient id="SVGID_1_" x1="2.846" x2="297.154" y1="150" y2="150" gradientUnits="userSpaceOnUse"><stop offset="0" stop-color="#3BB0C9"/><stop offset="1" stop-color="#58595B"/></linearGradient><path d="M150,4.3c-0.8,0-1.4,0.6-1.4,1.4s0.6,1.4,1.4,1.4c79.6,0,144.4,64.8,144.4,144.4S229.6,295.9,150,295.9	S5.6,231.1,5.6,151.5c0-48.6,24.1-93.5,64.6-120.3c3.4,5.6,9.6,9.4,16.7,9.4c10.8,0,19.6-8.8,19.6-19.6c0-10.8-8.8-19.6-19.6-19.6	S67.3,10.2,67.3,21c0,2.7,0.6,5.4,1.6,7.7C27.5,56.1,2.8,101.9,2.8,151.5c0,81.1,66,147.2,147.2,147.2s147.2-66,147.2-147.2	S231.1,4.3,150,4.3z M86.9,4.1c9.3,0,16.8,7.6,16.8,16.8c0,9.3-7.6,16.8-16.8,16.8S70.1,30.2,70.1,21C70.1,11.7,77.6,4.1,86.9,4.1z" class="st1"/><circle cx="86.9" cy="21" r="12.6" class="st2"/></svg>